<svg width="558" height="574" viewBox="0 0 558 574" fill="none" xmlns="http://www.w3.org/2000/svg">
<line x1="374" y1="273.364" x2="224" y2="273.364" stroke="white" stroke-opacity="0.2"/>
<line x1="270.5" y1="97.8641" x2="270.5" y2="272.864" stroke="white" stroke-opacity="0.2"/>
<line x1="460.5" y1="482" x2="460.5" y2="361" stroke="white" stroke-opacity="0.2"/>
<line x1="461" y1="482.5" x2="345" y2="482.5" stroke="white" stroke-opacity="0.2"/>
<line x1="223.5" y1="318" x2="223.5" y2="273" stroke="white" stroke-opacity="0.2"/>
<line x1="224" y1="317.665" x2="116" y2="317.665" stroke="white" stroke-opacity="0.2"/>
<g filter="url(#filter0_i_1540_227)">
<rect x="365" y="272.868" width="136" height="136" rx="20" transform="rotate(-45 365 272.868)" fill="url(#paint0_linear_1540_227)"/>
</g>
<path d="M230.849 40.565L255.598 15.8162C263.018 8.39627 275.048 8.39627 282.468 15.8162L307.217 40.565C314.637 47.9849 314.637 60.0151 307.217 67.435L282.468 92.1838C275.048 99.6037 263.018 99.6037 255.598 92.1838L230.849 67.435C223.429 60.0151 223.429 47.9849 230.849 40.565Z" fill="black" fill-opacity="0.2" stroke="url(#paint1_linear_1540_227)" stroke-width="2"/>
<path d="M271.28 59.44V64.32C271.28 64.7733 271.067 65 270.64 65H267.92C267.467 65 267.24 64.76 267.24 64.28V59.44C267.24 59.0133 267.467 58.8 267.92 58.8H270.64C271.067 58.8 271.28 59.0133 271.28 59.44ZM271.24 54.28V55.48C271.24 55.9333 271 56.16 270.52 56.16H268.16C267.707 56.16 267.48 55.9333 267.48 55.48V54.32C267.48 53.3333 267.627 52.56 267.92 52C268.213 51.44 268.747 50.84 269.52 50.2L271.48 48.56C272.413 47.8133 272.88 46.9867 272.88 46.08V45.52C272.88 43.6 271.88 42.64 269.88 42.64H268.8C267.813 42.64 267.093 42.88 266.64 43.36C266.187 43.8133 265.96 44.5333 265.96 45.52V46.68C265.96 47.16 265.72 47.4 265.24 47.4H262.72C262.267 47.4 262.04 47.16 262.04 46.68V45.44C262.04 43.4933 262.587 41.9867 263.68 40.92C264.773 39.8533 266.293 39.32 268.24 39.32H270.48C272.427 39.32 273.947 39.8533 275.04 40.92C276.133 41.9867 276.68 43.4933 276.68 45.44V46.28C276.68 47.6133 276.08 48.8133 274.88 49.88L272.48 51.8C271.947 52.2533 271.6 52.6533 271.44 53C271.307 53.32 271.24 53.7467 271.24 54.28Z" fill="#E9ECF1"/>
<path d="M321 72.9996C318.239 72.9996 316 70.7611 316 67.9996L316 39.9996C316 37.2382 318.239 34.9996 321 34.9996L444 34.9996C446.761 34.9996 449 37.2382 449 39.9996L449 67.9996C449 70.7611 446.761 72.9996 444 72.9996L321 72.9996Z" fill="black" fill-opacity="0.3"/>
<path d="M337.5 59.8653H335.36C334.373 59.8653 333.607 59.592 333.06 59.0453C332.527 58.4986 332.26 57.7386 332.26 56.7653V50.1053C332.26 49.1186 332.527 48.3586 333.06 47.8253C333.607 47.2786 334.373 47.0053 335.36 47.0053H337.5C338.487 47.0053 339.247 47.2786 339.78 47.8253C340.327 48.3586 340.6 49.1186 340.6 50.1053V50.8253C340.6 51.0653 340.487 51.1853 340.26 51.1853H339C338.773 51.1853 338.66 51.0653 338.66 50.8253V50.1853C338.66 49.1986 338.18 48.7053 337.22 48.7053H335.64C334.68 48.7053 334.2 49.1986 334.2 50.1853V56.6853C334.2 57.672 334.68 58.1653 335.64 58.1653H337.22C338.18 58.1653 338.66 57.672 338.66 56.6853V54.8853C338.66 54.752 338.587 54.6853 338.44 54.6853H336.82C336.593 54.6853 336.48 54.572 336.48 54.3453V53.3253C336.48 53.0986 336.593 52.9853 336.82 52.9853H340.18C340.46 52.9853 340.6 53.1253 340.6 53.4053V56.7653C340.6 57.7386 340.327 58.4986 339.78 59.0453C339.233 59.592 338.473 59.8653 337.5 59.8653ZM343.219 47.9653V46.1453C343.219 45.932 343.326 45.8253 343.539 45.8253H344.839C345.053 45.8253 345.159 45.932 345.159 46.1453V47.9653C345.159 48.192 345.053 48.3053 344.839 48.3053H343.539C343.326 48.3053 343.219 48.192 343.219 47.9653ZM343.219 59.5253V50.0053C343.219 49.7786 343.326 49.6653 343.539 49.6653H344.819C345.046 49.6653 345.159 49.7786 345.159 50.0053V59.5253C345.159 59.6586 345.133 59.752 345.079 59.8053C345.039 59.8453 344.959 59.8653 344.839 59.8653H343.559C343.333 59.8653 343.219 59.752 343.219 59.5253ZM347.147 49.6653H348.487C348.701 49.6653 348.827 49.7786 348.867 50.0053L350.947 58.0453H351.087L353.127 50.0053C353.181 49.7786 353.321 49.6653 353.547 49.6653H354.867C355.107 49.6653 355.187 49.7786 355.107 50.0053L352.407 59.5053C352.354 59.7453 352.207 59.8653 351.967 59.8653H350.047C349.807 59.8653 349.661 59.7453 349.607 59.5053L346.907 50.0053C346.854 49.7786 346.934 49.6653 347.147 49.6653ZM363.972 59.8653H359.652C358.666 59.8653 357.899 59.592 357.352 59.0453C356.819 58.4986 356.552 57.7386 356.552 56.7653V52.7653C356.552 51.7786 356.819 51.0186 357.352 50.4853C357.899 49.9386 358.666 49.6653 359.652 49.6653H361.292C362.279 49.6653 363.046 49.9386 363.592 50.4853C364.139 51.0186 364.412 51.7786 364.412 52.7653V55.3053C364.412 55.5453 364.292 55.6653 364.052 55.6653H358.692C358.546 55.6653 358.472 55.732 358.472 55.8653V56.7253C358.472 57.6986 358.959 58.1853 359.932 58.1853H363.972C364.212 58.1853 364.332 58.3053 364.332 58.5453V59.5453C364.332 59.7586 364.212 59.8653 363.972 59.8653ZM358.692 54.3053H362.272C362.406 54.3053 362.472 54.2386 362.472 54.1053V52.8253C362.472 52.3186 362.359 51.952 362.132 51.7253C361.906 51.4853 361.539 51.3653 361.032 51.3653H359.932C359.426 51.3653 359.059 51.4853 358.832 51.7253C358.606 51.952 358.492 52.3186 358.492 52.8253V54.1053C358.492 54.2386 358.559 54.3053 358.692 54.3053ZM370.335 59.8653H369.075C368.835 59.8653 368.715 59.752 368.715 59.5253V48.9053C368.715 48.772 368.649 48.7053 368.515 48.7053H365.995C365.755 48.7053 365.635 48.592 365.635 48.3653V47.3453C365.635 47.1186 365.755 47.0053 365.995 47.0053H373.415C373.655 47.0053 373.775 47.1186 373.775 47.3453V48.3653C373.775 48.592 373.655 48.7053 373.415 48.7053H370.895C370.749 48.7053 370.675 48.772 370.675 48.9053V59.5253C370.675 59.752 370.562 59.8653 370.335 59.8653ZM376.887 59.8653H375.627C375.401 59.8653 375.287 59.752 375.287 59.5253V46.1453C375.287 45.9186 375.401 45.8053 375.627 45.8053H376.887C377.114 45.8053 377.227 45.9186 377.227 46.1453V50.7253H377.307C377.627 50.0186 378.301 49.6653 379.327 49.6653H380.207C381.181 49.6653 381.927 49.932 382.447 50.4653C382.967 50.9986 383.227 51.7653 383.227 52.7653V59.5253C383.227 59.752 383.107 59.8653 382.867 59.8653H381.607C381.381 59.8653 381.267 59.752 381.267 59.5253V52.8453C381.267 51.8586 380.781 51.3653 379.807 51.3653H378.867C377.774 51.3653 377.227 51.932 377.227 53.0653V59.5253C377.227 59.752 377.114 59.8653 376.887 59.8653ZM389.299 59.8653H388.519C387.533 59.8653 386.766 59.592 386.219 59.0453C385.686 58.4986 385.419 57.7386 385.419 56.7653V52.7653C385.419 51.7786 385.686 51.0186 386.219 50.4853C386.766 49.9386 387.533 49.6653 388.519 49.6653H392.999C393.239 49.6653 393.359 49.7786 393.359 50.0053V59.5253C393.359 59.752 393.239 59.8653 392.999 59.8653H391.739C391.513 59.8653 391.399 59.752 391.399 59.5253V58.8053H391.319C390.999 59.512 390.326 59.8653 389.299 59.8653ZM391.399 56.4653V51.5653C391.399 51.432 391.326 51.3653 391.179 51.3653H388.799C387.839 51.3653 387.359 51.8586 387.359 52.8453V56.6853C387.359 57.672 387.839 58.1653 388.799 58.1653H389.759C390.853 58.1653 391.399 57.5986 391.399 56.4653ZM397.454 59.8653H396.194C395.967 59.8653 395.854 59.752 395.854 59.5253V50.0053C395.854 49.7786 395.967 49.6653 396.194 49.6653H397.454C397.68 49.6653 397.794 49.7786 397.794 50.0053V50.7253H397.874C398.194 50.0186 398.867 49.6653 399.894 49.6653H400.774C401.747 49.6653 402.494 49.932 403.014 50.4653C403.534 50.9986 403.794 51.7653 403.794 52.7653V59.5253C403.794 59.752 403.674 59.8653 403.434 59.8653H402.174C401.947 59.8653 401.834 59.752 401.834 59.5253V52.8453C401.834 51.8586 401.347 51.3653 400.374 51.3653H399.434C398.34 51.3653 397.794 51.932 397.794 53.0653V59.5253C397.794 59.752 397.68 59.8653 397.454 59.8653ZM411.986 49.6653H413.426C413.546 49.6653 413.626 49.7053 413.666 49.7853C413.719 49.852 413.706 49.9453 413.626 50.0653L410.806 54.5453V54.6253L413.846 59.4653C413.912 59.572 413.919 59.6653 413.866 59.7453C413.826 59.8253 413.732 59.8653 413.586 59.8653H412.286C411.979 59.8653 411.752 59.752 411.606 59.5253L408.786 54.9053C408.692 54.732 408.692 54.552 408.786 54.3653L411.406 49.9853C411.526 49.772 411.719 49.6653 411.986 49.6653ZM407.786 59.8653H406.526C406.299 59.8653 406.186 59.752 406.186 59.5253V46.1453C406.186 45.9186 406.299 45.8053 406.526 45.8053H407.786C408.012 45.8053 408.126 45.9186 408.126 46.1453V59.5253C408.126 59.752 408.012 59.8653 407.786 59.8653ZM418.947 59.8653H415.267C415.04 59.8653 414.927 59.752 414.927 59.5253V58.5453C414.927 58.332 415.04 58.2253 415.267 58.2253H418.627C419.494 58.2253 419.927 57.9253 419.927 57.3253V57.0853C419.927 56.552 419.614 56.1453 418.987 55.8653L416.807 54.8253C416.127 54.5053 415.634 54.152 415.327 53.7653C415.02 53.3786 414.867 52.872 414.867 52.2453C414.867 50.5253 415.82 49.6653 417.727 49.6653H421.047C421.26 49.6653 421.367 49.7786 421.367 50.0053V50.9853C421.367 51.212 421.26 51.3253 421.047 51.3253H418.127C417.727 51.3253 417.42 51.3986 417.207 51.5453C416.994 51.6786 416.887 51.8586 416.887 52.0853V52.3053C416.887 52.732 417.227 53.1053 417.907 53.4253L420.107 54.5453C420.8 54.852 421.274 55.2186 421.527 55.6453C421.794 56.0586 421.927 56.5986 421.927 57.2653C421.927 58.9986 420.934 59.8653 418.947 59.8653ZM432.298 47.0053H433.298C433.418 47.0053 433.478 47.0653 433.478 47.1853V51.7053C433.478 51.8386 433.418 51.9053 433.298 51.9053H432.718C432.585 51.9053 432.518 51.8386 432.518 51.7053V48.2853H432.458L431.518 50.5053C431.452 50.6386 431.385 50.7053 431.318 50.7053H430.678C430.572 50.7053 430.498 50.6386 430.458 50.5053L429.498 48.2853H429.438V51.7053C429.438 51.8386 429.378 51.9053 429.258 51.9053H428.658C428.538 51.9053 428.478 51.8386 428.478 51.7053V47.1853C428.478 47.0653 428.545 47.0053 428.678 47.0053H429.678C429.772 47.0053 429.838 47.052 429.878 47.1453L430.958 49.5853H431.018L432.118 47.1453C432.145 47.052 432.205 47.0053 432.298 47.0053ZM425.238 51.7053V47.8653H423.978C423.858 47.8653 423.798 47.7986 423.798 47.6653V47.1853C423.798 47.0653 423.858 47.0053 423.978 47.0053H427.418C427.552 47.0053 427.618 47.0653 427.618 47.1853V47.6653C427.618 47.7986 427.552 47.8653 427.418 47.8653H426.198V51.7053C426.198 51.8386 426.138 51.9053 426.018 51.9053H425.438C425.305 51.9053 425.238 51.8386 425.238 51.7053Z" fill="#E9ECF1"/>
<path d="M251 574C248.239 574 246 571.761 246 569L246 541C246 538.239 248.239 536 251 536L352 536C354.761 536 357 538.239 357 541L357 569C357 571.761 354.761 574 352 574L251 574Z" fill="black" fill-opacity="0.3"/>
<path d="M268.5 561H266.36C265.373 561 264.607 560.727 264.06 560.18C263.527 559.633 263.26 558.873 263.26 557.9V551.24C263.26 550.253 263.527 549.493 264.06 548.96C264.607 548.413 265.373 548.14 266.36 548.14H268.5C269.487 548.14 270.247 548.413 270.78 548.96C271.327 549.493 271.6 550.253 271.6 551.24V551.96C271.6 552.2 271.487 552.32 271.26 552.32H270C269.773 552.32 269.66 552.2 269.66 551.96V551.32C269.66 550.333 269.18 549.84 268.22 549.84H266.64C265.68 549.84 265.2 550.333 265.2 551.32V557.82C265.2 558.807 265.68 559.3 266.64 559.3H268.22C269.18 559.3 269.66 558.807 269.66 557.82V556.02C269.66 555.887 269.587 555.82 269.44 555.82H267.82C267.593 555.82 267.48 555.707 267.48 555.48V554.46C267.48 554.233 267.593 554.12 267.82 554.12H271.18C271.46 554.12 271.6 554.26 271.6 554.54V557.9C271.6 558.873 271.327 559.633 270.78 560.18C270.233 560.727 269.473 561 268.5 561ZM275.719 561H274.459C274.233 561 274.119 560.887 274.119 560.66V551.14C274.119 550.913 274.233 550.8 274.459 550.8H275.719C275.946 550.8 276.059 550.913 276.059 551.14V551.9H276.139C276.273 551.567 276.526 551.3 276.899 551.1C277.286 550.9 277.713 550.8 278.179 550.8H278.919C279.146 550.8 279.259 550.913 279.259 551.14V552.18C279.259 552.433 279.146 552.54 278.919 552.5H277.719C276.613 552.5 276.059 553.107 276.059 554.32V560.66C276.059 560.887 275.946 561 275.719 561ZM285.479 561H283.719C282.732 561 281.965 560.727 281.419 560.18C280.885 559.633 280.619 558.873 280.619 557.9V553.9C280.619 552.913 280.885 552.153 281.419 551.62C281.965 551.073 282.732 550.8 283.719 550.8H285.479C286.452 550.8 287.212 551.073 287.759 551.62C288.319 552.153 288.599 552.913 288.599 553.9V557.9C288.599 558.873 288.319 559.633 287.759 560.18C287.212 560.727 286.452 561 285.479 561ZM283.999 559.3H285.219C286.179 559.3 286.659 558.813 286.659 557.84V553.96C286.659 552.987 286.179 552.5 285.219 552.5H283.999C283.492 552.5 283.125 552.62 282.899 552.86C282.672 553.087 282.559 553.453 282.559 553.96V557.84C282.559 558.347 282.672 558.72 282.899 558.96C283.125 559.187 283.492 559.3 283.999 559.3ZM294.677 561H293.777C292.817 561 292.077 560.733 291.557 560.2C291.05 559.653 290.797 558.887 290.797 557.9V551.14C290.797 550.913 290.91 550.8 291.137 550.8H292.397C292.623 550.8 292.737 550.913 292.737 551.14V557.82C292.737 558.807 293.217 559.3 294.177 559.3H295.137C296.23 559.3 296.777 558.733 296.777 557.6V551.14C296.777 550.913 296.89 550.8 297.117 550.8H298.377C298.617 550.8 298.737 550.913 298.737 551.14V560.66C298.737 560.887 298.617 561 298.377 561H297.117C296.89 561 296.777 560.887 296.777 560.66V559.94H296.697C296.377 560.647 295.703 561 294.677 561ZM302.829 563.82H301.569C301.342 563.82 301.229 563.707 301.229 563.48V551.14C301.229 550.913 301.342 550.8 301.569 550.8H302.829C303.055 550.8 303.169 550.913 303.169 551.14V551.86H303.249C303.569 551.153 304.242 550.8 305.269 550.8H306.289C307.249 550.8 307.982 551.067 308.489 551.6C309.009 552.133 309.269 552.9 309.269 553.9V557.9C309.269 558.887 309.009 559.653 308.489 560.2C307.982 560.733 307.249 561 306.289 561H305.269C304.242 561 303.569 560.647 303.249 559.94H303.169V563.48C303.169 563.707 303.055 563.82 302.829 563.82ZM304.809 559.3H305.869C306.829 559.3 307.309 558.807 307.309 557.82V553.98C307.309 552.993 306.829 552.5 305.869 552.5H304.809C303.715 552.5 303.169 553.067 303.169 554.2V557.6C303.169 558.733 303.715 559.3 304.809 559.3ZM313.38 561H312.12C311.894 561 311.78 560.887 311.78 560.66V548.48C311.78 548.253 311.894 548.14 312.12 548.14H316.88C317.854 548.14 318.614 548.413 319.16 548.96C319.707 549.493 319.98 550.253 319.98 551.24V553.32C319.98 554.293 319.707 555.053 319.16 555.6C318.614 556.147 317.854 556.42 316.88 556.42H313.96C313.8 556.42 313.72 556.487 313.72 556.62V560.66C313.72 560.887 313.607 561 313.38 561ZM313.94 554.7H316.6C317.547 554.7 318.02 554.207 318.02 553.22V551.32C318.02 550.333 317.547 549.84 316.6 549.84H313.94C313.794 549.84 313.72 549.907 313.72 550.04V554.5C313.72 554.633 313.794 554.7 313.94 554.7ZM325.827 561H325.047C324.06 561 323.293 560.727 322.747 560.18C322.213 559.633 321.947 558.873 321.947 557.9V553.9C321.947 552.913 322.213 552.153 322.747 551.62C323.293 551.073 324.06 550.8 325.047 550.8H329.527C329.767 550.8 329.887 550.913 329.887 551.14V560.66C329.887 560.887 329.767 561 329.527 561H328.267C328.04 561 327.927 560.887 327.927 560.66V559.94H327.847C327.527 560.647 326.853 561 325.827 561ZM327.927 557.6V552.7C327.927 552.567 327.853 552.5 327.707 552.5H325.327C324.367 552.5 323.887 552.993 323.887 553.98V557.82C323.887 558.807 324.367 559.3 325.327 559.3H326.287C327.38 559.3 327.927 558.733 327.927 557.6ZM333.581 564.24H332.521C332.294 564.24 332.181 564.127 332.181 563.9V562.88C332.181 562.64 332.294 562.52 332.521 562.52H332.981C333.794 562.52 334.354 562.36 334.661 562.04C334.981 561.72 335.248 561.193 335.461 560.46H334.661C334.461 560.46 334.321 560.347 334.241 560.12L331.581 551.14C331.528 550.913 331.614 550.8 331.841 550.8H333.181C333.394 550.8 333.528 550.913 333.581 551.14L335.761 558.98H335.841L338.021 551.14C338.061 550.913 338.194 550.8 338.421 550.8H339.701C339.954 550.8 340.061 550.92 340.021 551.16L337.281 560.78C336.974 561.9 336.541 562.753 335.981 563.34C335.421 563.94 334.621 564.24 333.581 564.24Z" fill="#E9ECF1"/>
<g filter="url(#filter1_d_1540_227)">
<path opacity="0.99" d="M484.833 239.864H437.167L422 255.031H450.167L458.833 246.364H463.167L471.833 255.031H500L484.833 239.864Z" fill="url(#paint2_linear_1540_227)"/>
<path opacity="0.99" d="M422 259.364L432.833 272.364H445.833V283.16L432.833 283.198L441.5 294.031L445.833 294.031L445.833 302.698L458.833 317.864V268.031L450.09 259.364L422 259.364Z" fill="url(#paint3_linear_1540_227)"/>
<path opacity="0.99" d="M499.923 259.364L489.09 272.364H476.09V283.16L489.09 283.198L480.423 294.031L476.09 294.031L476.09 302.698L463.09 317.864V268.031L471.833 259.364L499.923 259.364Z" fill="url(#paint4_linear_1540_227)"/>
<path opacity="0.99" d="M462.463 250.69L467.508 255.735V258.661L462.463 263.706H459.537L454.492 258.661V255.735L459.537 250.69H462.463Z" fill="url(#paint5_linear_1540_227)" stroke="white" stroke-width="2"/>
</g>
<path d="M33.8492 303.598L58.598 278.849C66.0179 271.429 78.0481 271.429 85.468 278.849L110.217 303.598C117.637 311.018 117.637 323.048 110.217 330.468L85.468 355.217C78.0481 362.637 66.0179 362.637 58.598 355.217L33.8492 330.468C26.4293 323.048 26.4293 311.018 33.8492 303.598Z" fill="black" fill-opacity="0.2" stroke="url(#paint6_linear_1540_227)" stroke-width="2"/>
<path d="M5 404.165C2.23858 404.165 -9.78513e-08 401.927 -2.18557e-07 399.165L-1.44248e-06 371.165C-1.56318e-06 368.404 2.23857 366.165 5 366.165L138 366.165C140.761 366.165 143 368.404 143 371.165L143 399.165C143 401.927 140.761 404.165 138 404.165L5 404.165Z" fill="black" fill-opacity="0.3"/>
<path d="M19.98 391.165H18.72C18.48 391.165 18.36 391.052 18.36 390.825V380.205C18.36 380.072 18.2933 380.005 18.16 380.005H15.64C15.4 380.005 15.28 379.892 15.28 379.665V378.645C15.28 378.418 15.4 378.305 15.64 378.305H23.06C23.3 378.305 23.42 378.418 23.42 378.645V379.665C23.42 379.892 23.3 380.005 23.06 380.005H20.54C20.3933 380.005 20.32 380.072 20.32 380.205V390.825C20.32 391.052 20.2067 391.165 19.98 391.165ZM28.6119 391.165H27.8319C26.8452 391.165 26.0785 390.892 25.5319 390.345C24.9985 389.798 24.7319 389.038 24.7319 388.065V384.065C24.7319 383.078 24.9985 382.318 25.5319 381.785C26.0785 381.238 26.8452 380.965 27.8319 380.965H32.3119C32.5519 380.965 32.6719 381.078 32.6719 381.305V390.825C32.6719 391.052 32.5519 391.165 32.3119 391.165H31.0519C30.8252 391.165 30.7119 391.052 30.7119 390.825V390.105H30.6319C30.3119 390.812 29.6385 391.165 28.6119 391.165ZM30.7119 387.765V382.865C30.7119 382.732 30.6385 382.665 30.4919 382.665H28.1119C27.1519 382.665 26.6719 383.158 26.6719 384.145V387.985C26.6719 388.972 27.1519 389.465 28.1119 389.465H29.0719C30.1652 389.465 30.7119 388.898 30.7119 387.765ZM36.8663 391.165H35.6063C35.3796 391.165 35.2663 391.052 35.2663 390.825V377.445C35.2663 377.218 35.3796 377.105 35.6063 377.105H36.8663C37.0929 377.105 37.2063 377.218 37.2063 377.445V390.825C37.2063 391.052 37.0929 391.165 36.8663 391.165ZM45.6342 380.965H47.0742C47.1942 380.965 47.2742 381.005 47.3142 381.085C47.3676 381.152 47.3542 381.245 47.2742 381.365L44.4542 385.845V385.925L47.4942 390.765C47.5609 390.872 47.5676 390.965 47.5142 391.045C47.4742 391.125 47.3809 391.165 47.2342 391.165H45.9342C45.6276 391.165 45.4009 391.052 45.2542 390.825L42.4342 386.205C42.3409 386.032 42.3409 385.852 42.4342 385.665L45.0542 381.285C45.1742 381.072 45.3676 380.965 45.6342 380.965ZM41.4342 391.165H40.1742C39.9476 391.165 39.8342 391.052 39.8342 390.825V377.445C39.8342 377.218 39.9476 377.105 40.1742 377.105H41.4342C41.6609 377.105 41.7742 377.218 41.7742 377.445V390.825C41.7742 391.052 41.6609 391.165 41.4342 391.165ZM52.6753 391.165H51.4153C51.1753 391.165 51.0553 391.052 51.0553 390.825V380.205C51.0553 380.072 50.9886 380.005 50.8553 380.005H48.3353C48.0953 380.005 47.9753 379.892 47.9753 379.665V378.645C47.9753 378.418 48.0953 378.305 48.3353 378.305H55.7553C55.9953 378.305 56.1153 378.418 56.1153 378.645V379.665C56.1153 379.892 55.9953 380.005 55.7553 380.005H53.2353C53.0886 380.005 53.0153 380.072 53.0153 380.205V390.825C53.0153 391.052 52.902 391.165 52.6753 391.165ZM62.2872 391.165H60.5272C59.5405 391.165 58.7739 390.892 58.2272 390.345C57.6939 389.798 57.4272 389.038 57.4272 388.065V384.065C57.4272 383.078 57.6939 382.318 58.2272 381.785C58.7739 381.238 59.5405 380.965 60.5272 380.965H62.2872C63.2605 380.965 64.0205 381.238 64.5672 381.785C65.1272 382.318 65.4072 383.078 65.4072 384.065V388.065C65.4072 389.038 65.1272 389.798 64.5672 390.345C64.0205 390.892 63.2605 391.165 62.2872 391.165ZM60.8072 389.465H62.0272C62.9872 389.465 63.4672 388.978 63.4672 388.005V384.125C63.4672 383.152 62.9872 382.665 62.0272 382.665H60.8072C60.3005 382.665 59.9339 382.785 59.7072 383.025C59.4805 383.252 59.3672 383.618 59.3672 384.125V388.005C59.3672 388.512 59.4805 388.885 59.7072 389.125C59.9339 389.352 60.3005 389.465 60.8072 389.465ZM73.1253 391.165H70.8053C69.8186 391.165 69.052 390.892 68.5053 390.345C67.972 389.798 67.7053 389.038 67.7053 388.065V381.405C67.7053 380.418 67.972 379.658 68.5053 379.125C69.052 378.578 69.8186 378.305 70.8053 378.305H73.1253C74.0986 378.305 74.8586 378.578 75.4053 379.125C75.952 379.658 76.2253 380.418 76.2253 381.405V382.365C76.2253 382.605 76.1053 382.725 75.8653 382.725H74.6053C74.3786 382.725 74.2653 382.605 74.2653 382.365V381.485C74.2653 380.498 73.7853 380.005 72.8253 380.005H71.0853C70.1253 380.005 69.6453 380.498 69.6453 381.485V387.985C69.6453 388.972 70.1253 389.465 71.0853 389.465H72.8253C73.7853 389.465 74.2653 388.972 74.2653 387.985V387.105C74.2653 386.865 74.3786 386.745 74.6053 386.745H75.8653C76.1053 386.745 76.2253 386.865 76.2253 387.105V388.065C76.2253 389.038 75.952 389.798 75.4053 390.345C74.8586 390.892 74.0986 391.165 73.1253 391.165ZM82.1861 391.165H81.4061C80.4194 391.165 79.6528 390.892 79.1061 390.345C78.5728 389.798 78.3061 389.038 78.3061 388.065V384.065C78.3061 383.078 78.5728 382.318 79.1061 381.785C79.6528 381.238 80.4194 380.965 81.4061 380.965H85.8861C86.1261 380.965 86.2461 381.078 86.2461 381.305V390.825C86.2461 391.052 86.1261 391.165 85.8861 391.165H84.6261C84.3994 391.165 84.2861 391.052 84.2861 390.825V390.105H84.2061C83.8861 390.812 83.2128 391.165 82.1861 391.165ZM84.2861 387.765V382.865C84.2861 382.732 84.2128 382.665 84.0661 382.665H81.6861C80.7261 382.665 80.2461 383.158 80.2461 384.145V387.985C80.2461 388.972 80.7261 389.465 81.6861 389.465H82.6461C83.7394 389.465 84.2861 388.898 84.2861 387.765ZM90.4405 391.165H89.1805C88.9538 391.165 88.8405 391.052 88.8405 390.825V377.445C88.8405 377.218 88.9538 377.105 89.1805 377.105H90.4405C90.6671 377.105 90.7805 377.218 90.7805 377.445V390.825C90.7805 391.052 90.6671 391.165 90.4405 391.165ZM98.0684 391.165H96.3084C95.3218 391.165 94.5551 390.892 94.0084 390.345C93.4751 389.798 93.2084 389.038 93.2084 388.065V384.065C93.2084 383.078 93.4751 382.318 94.0084 381.785C94.5551 381.238 95.3218 380.965 96.3084 380.965H98.0684C99.0418 380.965 99.8018 381.238 100.348 381.785C100.908 382.318 101.188 383.078 101.188 384.065V388.065C101.188 389.038 100.908 389.798 100.348 390.345C99.8018 390.892 99.0418 391.165 98.0684 391.165ZM96.5884 389.465H97.8084C98.7684 389.465 99.2484 388.978 99.2484 388.005V384.125C99.2484 383.152 98.7684 382.665 97.8084 382.665H96.5884C96.0818 382.665 95.7151 382.785 95.4884 383.025C95.2618 383.252 95.1484 383.618 95.1484 384.125V388.005C95.1484 388.512 95.2618 388.885 95.4884 389.125C95.7151 389.352 96.0818 389.465 96.5884 389.465ZM105.087 391.165H103.827C103.6 391.165 103.487 391.052 103.487 390.825V381.305C103.487 381.078 103.6 380.965 103.827 380.965H105.087C105.313 380.965 105.427 381.078 105.427 381.305V382.065H105.507C105.64 381.732 105.893 381.465 106.267 381.265C106.653 381.065 107.08 380.965 107.547 380.965H108.287C108.513 380.965 108.627 381.078 108.627 381.305V382.345C108.627 382.598 108.513 382.705 108.287 382.665H107.087C105.98 382.665 105.427 383.272 105.427 384.485V390.825C105.427 391.052 105.313 391.165 105.087 391.165ZM110.286 379.265V377.445C110.286 377.232 110.392 377.125 110.606 377.125H111.906C112.119 377.125 112.226 377.232 112.226 377.445V379.265C112.226 379.492 112.119 379.605 111.906 379.605H110.606C110.392 379.605 110.286 379.492 110.286 379.265ZM110.286 390.825V381.305C110.286 381.078 110.392 380.965 110.606 380.965H111.886C112.112 380.965 112.226 381.078 112.226 381.305V390.825C112.226 390.958 112.199 391.052 112.146 391.105C112.106 391.145 112.026 391.165 111.906 391.165H110.626C110.399 391.165 110.286 391.052 110.286 390.825ZM122.074 391.165H117.754C116.767 391.165 116 390.892 115.454 390.345C114.92 389.798 114.654 389.038 114.654 388.065V384.065C114.654 383.078 114.92 382.318 115.454 381.785C116 381.238 116.767 380.965 117.754 380.965H119.394C120.38 380.965 121.147 381.238 121.694 381.785C122.24 382.318 122.514 383.078 122.514 384.065V386.605C122.514 386.845 122.394 386.965 122.154 386.965H116.794C116.647 386.965 116.574 387.032 116.574 387.165V388.025C116.574 388.998 117.06 389.485 118.034 389.485H122.074C122.314 389.485 122.434 389.605 122.434 389.845V390.845C122.434 391.058 122.314 391.165 122.074 391.165ZM116.794 385.605H120.374C120.507 385.605 120.574 385.538 120.574 385.405V384.125C120.574 383.618 120.46 383.252 120.234 383.025C120.007 382.785 119.64 382.665 119.134 382.665H118.034C117.527 382.665 117.16 382.785 116.934 383.025C116.707 383.252 116.594 383.618 116.594 384.125V385.405C116.594 385.538 116.66 385.605 116.794 385.605Z" fill="#E9ECF1"/>
<path opacity="0.99" d="M88.3947 308.573L85.4458 305.627C85.3803 305.562 85.3333 305.481 85.3093 305.391C85.2854 305.302 85.2854 305.208 85.3093 305.119C85.3333 305.029 85.3803 304.948 85.4458 304.883C85.5112 304.817 85.5927 304.77 85.6821 304.746C86.1819 304.622 86.7058 304.63 87.201 304.772C87.6963 304.913 88.1456 305.182 88.5037 305.552C88.8618 305.922 89.1161 306.38 89.2411 306.879C89.3661 307.378 89.3573 307.901 89.2156 308.396C89.1896 308.477 89.1426 308.549 89.0795 308.607C89.0165 308.664 88.9394 308.703 88.8562 308.721C88.7731 308.739 88.6866 308.735 88.6056 308.709C88.5246 308.683 88.4518 308.636 88.3947 308.573Z" fill="url(#paint7_linear_1540_227)"/>
<path opacity="0.99" d="M56.3913 308.571L59.3292 305.628C59.3944 305.563 59.4412 305.482 59.4651 305.392C59.489 305.303 59.489 305.209 59.4651 305.12C59.4412 305.031 59.3944 304.95 59.3292 304.884C59.264 304.819 59.1827 304.772 59.0937 304.748C58.5958 304.623 58.0739 304.632 57.5805 304.774C57.0871 304.915 56.6395 305.184 56.2827 305.553C55.926 305.923 55.6726 306.38 55.5481 306.879C55.4236 307.377 55.4324 307.9 55.5735 308.394C55.5995 308.475 55.6462 308.548 55.7091 308.605C55.7719 308.662 55.8486 308.701 55.9315 308.719C56.0144 308.737 56.1005 308.733 56.1812 308.707C56.262 308.681 56.3344 308.634 56.3913 308.571Z" fill="url(#paint8_linear_1540_227)"/>
<path opacity="0.99" d="M80.9095 301.394H63.8651C62.4447 301.394 61.2932 302.544 61.2932 303.962V304.127C61.2932 305.545 62.4447 306.695 63.8651 306.695H80.9095C82.3298 306.695 83.4813 305.545 83.4813 304.127V303.962C83.4813 302.544 82.3298 301.394 80.9095 301.394Z" fill="#D9D9D9"/>
<path opacity="0.99" d="M66.5768 297.391C66.2829 297.803 66.0583 298.259 65.9118 298.743C65.19 301.185 67.0774 304.535 69.5158 305.28L69.686 305.329C70.3539 305.503 71.0523 305.527 71.7305 305.399C72.0441 304.962 72.2793 304.474 72.4256 303.957C73.1007 301.501 71.1646 298.178 68.7125 297.48C68.0171 297.285 67.2858 297.255 66.5768 297.391Z" fill="#94DE29" fill-opacity="0.992157"/>
<path opacity="0.99" d="M66.5765 297.392C66.2826 297.804 66.058 298.26 65.9115 298.744C65.1898 301.186 67.0771 304.535 69.5152 305.28L69.6854 305.329C70.3533 305.504 71.0516 305.528 71.7297 305.399L71.2961 304.711L67.3631 298.612L66.5765 297.392Z" fill="#78B71C" fill-opacity="0.992157"/>
<path opacity="0.99" d="M72.4562 306.488C72.1623 306.077 71.9377 305.62 71.7912 305.137C71.0694 302.694 72.9568 299.345 75.3952 298.6L75.5654 298.551C76.2333 298.376 76.9317 298.352 77.6099 298.481C77.9235 298.918 78.1587 299.406 78.305 299.923C78.9801 302.379 77.044 305.701 74.5919 306.4C73.8965 306.595 73.1652 306.625 72.4562 306.488Z" fill="#94DE29" fill-opacity="0.992157"/>
<path opacity="0.99" d="M72.456 306.487C72.1621 306.076 71.9375 305.619 71.7911 305.136C71.0693 302.694 72.9566 299.344 75.3947 298.599L75.5649 298.551C76.2328 298.376 76.9311 298.352 77.6093 298.48L77.1756 299.168L73.2426 305.268L72.456 306.487Z" fill="#78B71C" fill-opacity="0.992157"/>
<path opacity="0.99" d="M79.9207 303.619H64.8537C58.7348 303.619 53.7744 308.574 53.7744 314.685V322.082C53.7744 328.194 58.7348 333.148 64.8537 333.148H79.9207C86.0396 333.148 90.9999 328.194 90.9999 322.082V314.685C90.9999 308.574 86.0396 303.619 79.9207 303.619Z" fill="#FEFFFF"/>
<path opacity="0.99" d="M80.6045 307.304H64.1699C59.5782 307.304 55.8558 311.022 55.8558 315.608V321.159C55.8558 325.745 59.5782 329.463 64.1699 329.463H80.6045C85.1962 329.463 88.9185 325.745 88.9185 321.159V315.608C88.9185 311.022 85.1962 307.304 80.6045 307.304Z" fill="#1B3150" fill-opacity="0.992157"/>
<path opacity="0.99" d="M80.6046 307.304L77.4441 307.304L64.17 329.463H80.6046C85.2106 329.463 88.9187 325.76 88.9187 321.159V315.608C88.9187 311.008 85.2106 307.304 80.6046 307.304Z" fill="#152538"/>
<path opacity="0.99" d="M64.0296 316.611C63.6826 316.201 63.5116 315.67 63.5539 315.135C63.5962 314.6 63.8483 314.103 64.2554 313.753C64.6625 313.402 65.1916 313.227 65.7278 313.264C66.264 313.301 66.7638 313.548 67.1185 313.951C67.4733 314.354 67.6543 314.881 67.6223 315.417C67.5902 315.953 67.3476 316.454 66.9473 316.813C66.547 317.171 66.0213 317.357 65.4845 317.33C64.9477 317.303 64.4433 317.065 64.0809 316.669" fill="url(#paint9_linear_1540_227)"/>
<path opacity="0.99" d="M77.8727 316.611C77.5257 316.201 77.3548 315.67 77.3971 315.135C77.4394 314.6 77.6915 314.103 78.0985 313.753C78.5056 313.402 79.0348 313.227 79.5709 313.264C80.1071 313.301 80.6069 313.548 80.9617 313.951C81.3164 314.354 81.4975 314.881 81.4654 315.417C81.4333 315.953 81.1908 316.454 80.7904 316.813C80.3901 317.171 79.8644 317.357 79.3276 317.33C78.7909 317.303 78.2864 317.065 77.924 316.669" fill="url(#paint10_linear_1540_227)"/>
<path opacity="0.99" d="M77.2784 322.766L76.9977 323.251C76.5331 324.055 75.8648 324.722 75.0601 325.186C74.2553 325.651 73.3424 325.895 72.4132 325.895C71.4839 325.895 70.571 325.651 69.7662 325.186C68.9615 324.722 68.2932 324.055 67.8286 323.251L67.4865 322.659C67.4191 322.543 67.3837 322.411 67.3837 322.276C67.3837 322.142 67.4191 322.009 67.4865 321.893C67.5539 321.776 67.6508 321.679 67.7675 321.612C67.8841 321.545 68.0165 321.509 68.1512 321.509H76.5522C76.6994 321.509 76.844 321.548 76.9715 321.622C77.0989 321.695 77.2048 321.801 77.2784 321.928C77.352 322.056 77.3907 322.2 77.3907 322.347C77.3907 322.494 77.352 322.638 77.2784 322.766Z" fill="#378BFB"/>
<path d="M262.849 469.565L287.598 444.816C295.018 437.396 307.048 437.396 314.468 444.816L339.217 469.565C346.637 476.985 346.637 489.015 339.217 496.435L314.468 521.184C307.048 528.604 295.018 528.604 287.598 521.184L262.849 496.435C255.429 489.015 255.429 476.985 262.849 469.565Z" fill="black" fill-opacity="0.2" stroke="url(#paint11_linear_1540_227)" stroke-width="2"/>
<path d="M303.28 489.44V494.32C303.28 494.773 303.067 495 302.64 495H299.92C299.467 495 299.24 494.76 299.24 494.28V489.44C299.24 489.013 299.467 488.8 299.92 488.8H302.64C303.067 488.8 303.28 489.013 303.28 489.44ZM303.24 484.28V485.48C303.24 485.933 303 486.16 302.52 486.16H300.16C299.707 486.16 299.48 485.933 299.48 485.48V484.32C299.48 483.333 299.627 482.56 299.92 482C300.213 481.44 300.747 480.84 301.52 480.2L303.48 478.56C304.413 477.813 304.88 476.987 304.88 476.08V475.52C304.88 473.6 303.88 472.64 301.88 472.64H300.8C299.813 472.64 299.093 472.88 298.64 473.36C298.187 473.813 297.96 474.533 297.96 475.52V476.68C297.96 477.16 297.72 477.4 297.24 477.4H294.72C294.267 477.4 294.04 477.16 294.04 476.68V475.44C294.04 473.493 294.587 471.987 295.68 470.92C296.773 469.853 298.293 469.32 300.24 469.32H302.48C304.427 469.32 305.947 469.853 307.04 470.92C308.133 471.987 308.68 473.493 308.68 475.44V476.28C308.68 477.613 308.08 478.813 306.88 479.88L304.48 481.8C303.947 482.253 303.6 482.653 303.44 483C303.307 483.32 303.24 483.747 303.24 484.28Z" fill="#E9ECF1"/>
<defs>
<filter id="filter0_i_1540_227" x="373.284" y="184.986" width="175.765" height="175.765" filterUnits="userSpaceOnUse" color-interpolation-filters="sRGB">
<feFlood flood-opacity="0" result="BackgroundImageFix"/>
<feBlend mode="normal" in="SourceGraphic" in2="BackgroundImageFix" result="shape"/>
<feColorMatrix in="SourceAlpha" type="matrix" values="0 0 0 0 0 0 0 0 0 0 0 0 0 0 0 0 0 0 127 0" result="hardAlpha"/>
<feOffset/>
<feGaussianBlur stdDeviation="1.5"/>
<feComposite in2="hardAlpha" operator="arithmetic" k2="-1" k3="1"/>
<feColorMatrix type="matrix" values="0 0 0 0 0 0 0 0 0 0 0 0 0 0 0 0 0 0 1 0"/>
<feBlend mode="normal" in2="shape" result="effect1_innerShadow_1540_227"/>
</filter>
<filter id="filter1_d_1540_227" x="420" y="238.864" width="82" height="82" filterUnits="userSpaceOnUse" color-interpolation-filters="sRGB">
<feFlood flood-opacity="0" result="BackgroundImageFix"/>
<feColorMatrix in="SourceAlpha" type="matrix" values="0 0 0 0 0 0 0 0 0 0 0 0 0 0 0 0 0 0 127 0" result="hardAlpha"/>
<feOffset dy="1"/>
<feGaussianBlur stdDeviation="1"/>
<feComposite in2="hardAlpha" operator="out"/>
<feColorMatrix type="matrix" values="0 0 0 0 0 0 0 0 0 0 0 0 0 0 0 0 0 0 0.5 0"/>
<feBlend mode="normal" in2="BackgroundImageFix" result="effect1_dropShadow_1540_227"/>
<feBlend mode="normal" in="SourceGraphic" in2="effect1_dropShadow_1540_227" result="shape"/>
</filter>
<linearGradient id="paint0_linear_1540_227" x1="388.347" y1="310.741" x2="487.855" y2="317.383" gradientUnits="userSpaceOnUse">
<stop stop-color="#E0A348"/>
<stop offset="1" stop-color="#DB8402"/>
</linearGradient>
<linearGradient id="paint1_linear_1540_227" x1="239.873" y1="59.6647" x2="281.266" y2="23.4514" gradientUnits="userSpaceOnUse">
<stop stop-color="#E0A348"/>
<stop offset="1" stop-color="#DB8402"/>
</linearGradient>
<linearGradient id="paint2_linear_1540_227" x1="419.24" y1="237.104" x2="502.425" y2="320.289" gradientUnits="userSpaceOnUse">
<stop stop-color="white"/>
<stop offset="1" stop-color="white"/>
</linearGradient>
<linearGradient id="paint3_linear_1540_227" x1="419.24" y1="237.104" x2="502.425" y2="320.289" gradientUnits="userSpaceOnUse">
<stop stop-color="white"/>
<stop offset="1" stop-color="white"/>
</linearGradient>
<linearGradient id="paint4_linear_1540_227" x1="419.24" y1="237.104" x2="502.425" y2="320.289" gradientUnits="userSpaceOnUse">
<stop stop-color="white"/>
<stop offset="1" stop-color="white"/>
</linearGradient>
<linearGradient id="paint5_linear_1540_227" x1="470.673" y1="241.88" x2="479.056" y2="259.16" gradientUnits="userSpaceOnUse">
<stop stop-color="#DB8402"/>
<stop offset="1" stop-color="#F3C786"/>
</linearGradient>
<linearGradient id="paint6_linear_1540_227" x1="42.8727" y1="322.698" x2="84.2659" y2="286.484" gradientUnits="userSpaceOnUse">
<stop stop-color="#E0A348"/>
<stop offset="1" stop-color="#DB8402"/>
</linearGradient>
<linearGradient id="paint7_linear_1540_227" x1="91" y1="306.93" x2="86.0874" y2="304.03" gradientUnits="userSpaceOnUse">
<stop stop-color="#407BFF"/>
<stop offset="0.5" stop-color="#3296FC"/>
<stop offset="1" stop-color="#21B7F9"/>
</linearGradient>
<linearGradient id="paint8_linear_1540_227" x1="53.7958" y1="306.93" x2="58.6972" y2="304.045" gradientUnits="userSpaceOnUse">
<stop stop-color="#407BFF"/>
<stop offset="0.5" stop-color="#3296FC"/>
<stop offset="1" stop-color="#21B7F9"/>
</linearGradient>
<linearGradient id="paint9_linear_1540_227" x1="63.5476" y1="315.296" x2="67.6259" y2="315.296" gradientUnits="userSpaceOnUse">
<stop stop-color="#407BFF"/>
<stop offset="0.5" stop-color="#3296FC"/>
<stop offset="1" stop-color="#21B7F9"/>
</linearGradient>
<linearGradient id="paint10_linear_1540_227" x1="77.3908" y1="315.296" x2="81.469" y2="315.296" gradientUnits="userSpaceOnUse">
<stop stop-color="#407BFF"/>
<stop offset="0.5" stop-color="#3296FC"/>
<stop offset="1" stop-color="#21B7F9"/>
</linearGradient>
<linearGradient id="paint11_linear_1540_227" x1="271.873" y1="488.665" x2="313.266" y2="452.451" gradientUnits="userSpaceOnUse">
<stop stop-color="#E0A348"/>
<stop offset="1" stop-color="#DB8402"/>
</linearGradient>
</defs>
</svg>
